<svg xmlns="http://www.w3.org/2000/svg" viewBox="0 0 32 32"><path d="M16 32C7.16 32 0 24.84 0 16S7.16 0 16 0s16 7.16 16 16c-.03 8.83-7.17 15.97-16 16z" opacity=".796" fill="#10658e"/><path d="M20.44 11.02c-1.63-1.48-3.08-2.8-4.25-3.86L11.66 8h-.74v16.86h.86V11.24l.34 1.82 11.29 5.82.1.05c.06.04.12.06.19.07a3.643 3.643 0 002.17-3.01c-.58-.58-2.94-2.71-5.43-4.97zm-8.17 1l-.48-3.14v-.55l3.48-.52a6.455 6.455 0 00-3 4.21zm5.02 3.23l-2.17-1.12a5.385 5.385 0 013.01-4.51l1.89 1.67a4.827 4.827 0 00-2.73 3.96zm4.44 2.34l-1.99-1.02a5.158 5.158 0 012.37-3.43l1.71 1.5c-.97.77-1.7 1.79-2.09 2.95zm2.06 1.05l-.07-.02c.31-1 .91-1.89 1.72-2.56l.07.07.02-.02a4.476 4.476 0 01-1.74 2.53z" fill="#fff"/></svg>